<?xml version="1.0" encoding="utf-8"?>
<svg width="50px" height="40px" viewBox="0 0 50 40" version="1.1" xmlns:xlink="http://www.w3.org/1999/xlink" xmlns="http://www.w3.org/2000/svg">
  <defs>
    <path d="M25 0L25 0L25 25L0 25L0 0L25 0Z" id="path_1" />
    <clipPath id="clip_1">
      <use xlink:href="#path_1" />
    </clipPath>
  </defs>
  <path d="M50 5C50 2.2382 47.7618 0 45 0L5 0C2.2382 0 0 2.2382 0 5L0 35C0 37.7618 2.2382 40 5 40L45 40C47.7618 40 50 37.7618 50 35L50 5ZM38.5 3C39.3285 3 40 3.67146 40 4.5C40 5.32854 39.3285 6 38.5 6L5.5 6C4.67146 6 4 5.32854 4 4.5C4 3.67146 4.67146 3 5.5 3L38.5 3ZM28 9C28 8.44764 27.5524 8 27 8L5 8C4.44764 8 4 8.44764 4 9C4 9.55236 4.44764 10 5 10L27 10C27.5524 10 28 9.55236 28 9ZM46 17C46 14.2382 43.7618 12 41 12L9 12C6.2382 12 4 14.2382 4 17L4 32C4 34.7618 6.2382 37 9 37L41 37C43.7618 37 46 34.7618 46 32L46 17Z" id="Rectangle-Difference" fill="#6C19FF" fill-rule="evenodd" stroke="none" />
  <g id="Planet" clip-path="url(#clip_1)" transform="translate(13 12)">
    <path d="M25 0L25 0L25 25L0 25L0 0L25 0Z" id="Planet" fill="none" stroke="none" />
    <path d="M16.29 3.9502C17.1044 4.39356 18.2763 4.86621 18.5585 5.81055C18.8271 7.53906 17.8857 9.375 16.8134 10.7842C14.5986 13.6953 11.4453 16.2197 7.95406 17.4082C7.54878 17.5469 7.1064 17.5879 6.67573 17.6611C6.276 17.7282 5.95926 17.7428 5.72554 17.7051C5.31017 17.6374 4.92476 17.4811 4.56929 17.2363C4.0146 16.7559 3.71577 15.6191 3.43843 14.9414C2.78869 12.2148 3.17248 9.72168 4.5898 7.46192C6.78023 3.96973 11.0918 2.4209 15.0322 3.47559C15.3382 3.55762 15.7574 3.71582 16.29 3.9502L16.29 3.9502Z" id="Shape" fill="#6C19FF" stroke="none" />
    <path d="M21.5781 10.0098C21.4492 9.78711 21.3346 9.55729 21.2344 9.32031C20.6992 8.04883 19.7578 6.87695 18.7852 5.82324C18.7044 5.7347 18.6289 5.73047 18.5586 5.81054C18.2764 4.86621 17.1045 4.39355 16.29 3.95019C17.5231 3.3597 18.8232 3.08887 20.1904 3.13769C21.4668 3.18262 22.5215 3.94922 22.7939 5.18164C23.1592 6.83398 22.2705 8.59863 21.5781 10.0098L21.5781 10.0098Z" id="Shape" fill="#3DD9EB" stroke="none" />
    <path d="M21.5782 10.0098L21.6026 10.2539C21.4691 10.3841 21.2803 10.6419 21.0362 11.0273C19.834 12.9209 17.8965 14.9941 16.3008 16.4219C14.1049 18.3874 11.6491 19.9574 8.93364 21.1318L8.67973 21.0605C6.92843 20.248 5.54138 19.0221 4.5186 17.3828C4.50297 17.3581 4.5059 17.3353 4.52739 17.3145C4.54887 17.2936 4.56287 17.2676 4.56938 17.2363C4.92485 17.4811 5.31026 17.6374 5.72563 17.7051C5.95935 17.7428 6.27608 17.7282 6.67582 17.6611C7.10649 17.5879 7.54887 17.5469 7.95414 17.4082C11.4454 16.2197 14.5987 13.6953 16.8135 10.7842C17.8858 9.375 18.8272 7.53906 18.5586 5.81055C18.6289 5.73047 18.7045 5.7347 18.7852 5.82324C19.7579 6.87695 20.6993 8.04883 21.2344 9.32031C21.3347 9.55729 21.4493 9.78711 21.5782 10.0098L21.5782 10.0098Z" id="Shape" fill="#00B3D7" stroke="none" />
    <path d="M21.6025 10.2539C21.8538 11.3939 21.9294 12.4359 21.8291 13.3799C21.4766 16.707 19.3184 19.8262 16.1855 21.0898C14.3564 21.8281 12.4258 22.085 10.4736 21.627C9.94499 21.5026 9.43164 21.3376 8.93359 21.1318C11.6491 19.9574 14.1048 18.3874 16.3008 16.4219C17.8965 14.9941 19.834 12.9209 21.0361 11.0273C21.2803 10.6419 21.4691 10.3841 21.6025 10.2539L21.6025 10.2539Z" id="Shape" fill="#6C19FF" stroke="none" />
    <path d="M3.43842 14.9414C3.71577 15.6191 4.0146 16.7559 4.56928 17.2363C4.56277 17.2676 4.54877 17.2936 4.52729 17.3145C4.50581 17.3353 4.50288 17.3581 4.5185 17.3828C5.54129 19.0221 6.92833 20.248 8.67963 21.0605C7.20405 21.7383 4.58491 22.3496 3.12104 21.2988C1.17963 19.9062 2.45307 16.5791 3.37592 14.9941C3.38308 14.9811 3.40392 14.9635 3.43842 14.9414L3.43842 14.9414Z" id="Shape" fill="#3DD9EB" stroke="none" />
  </g>
</svg>